<svg xmlns="http://www.w3.org/2000/svg" width="600" height="600" viewBox="0 0 600 600" version="1.1">
	<path d="M 281 33.125 C 268.180 34.421, 247.163 38.683, 234.165 42.623 C 193.480 54.955, 159.937 74.647, 129.677 103.964 C 96.399 136.206, 73.397 174.658, 61.162 218.500 C 55.498 238.797, 52.023 261.668, 52.008 278.756 L 52 288.012 131.250 287.756 L 210.500 287.500 211.259 279 C 214.962 237.539, 244.467 203.552, 285.647 193.315 C 296.070 190.724, 319.898 191.015, 330.500 193.862 C 370.123 204.504, 399.834 239.413, 402.841 278.862 L 403.500 287.500 482.444 287.756 C 525.863 287.897, 561.757 287.643, 562.207 287.193 C 563.400 286, 561.334 259.523, 558.928 245.167 C 546.883 173.294, 503.714 109.159, 441 69.963 C 427.592 61.582, 403.858 50.569, 387.385 45.082 C 370.625 39.500, 348.245 34.680, 331.576 33.061 C 318.996 31.839, 293.400 31.872, 281 33.125 M 52.292 343.744 C 54.321 393.953, 74.701 447.509, 107.408 488.580 C 145.032 535.826, 199.628 568.972, 258.579 580.357 C 294.859 587.363, 334.109 586.352, 368.931 577.515 C 426.477 562.910, 475.436 530.415, 511.391 482.960 C 542.048 442.498, 560.773 389.640, 562.213 339.500 L 562.500 329.500 483 329.500 L 403.500 329.500 403.263 334 C 401.182 373.446, 375.802 407.709, 339.191 420.501 C 303.976 432.804, 265.421 423.794, 238.993 397.087 C 222.935 380.859, 213.199 360.125, 211.249 338 L 210.500 329.500 131.098 329.244 L 51.696 328.988 52.292 343.744" stroke="none" fill="black" fill-rule="evenodd"/>
</svg>